<?xml version="1.0" encoding="UTF-8"?>
<svg version="1.1" xmlns="http://www.w3.org/2000/svg" width="1024" height="1024">
<path d="M0 0 C65.89807753 -0.11841547 131.79670682 -0.08273097 197.69420815 0.23732471 C199.49259054 0.24604548 201.29097298 0.25475668 203.08935547 0.26345825 C204.4196521 0.26990102 204.4196521 0.26990102 205.7768234 0.27647394 C212.01591591 0.30594208 218.25500663 0.32772108 224.49414062 0.34616089 C232.16688415 0.36895807 239.83949734 0.40225727 247.51213616 0.44860125 C251.4523106 0.47214814 255.39236256 0.49122784 259.33260536 0.49763107 C274.76228396 0.52606152 289.88266313 0.56029525 305 4 C306.14069443 4.25374893 307.28138885 4.50749786 308.45664978 4.76893616 C342.32546498 12.60131754 371.88698755 29.22149546 397 53 C397.89332031 53.84046875 398.78664063 54.6809375 399.70703125 55.546875 C406.56682849 62.18600743 412.43373364 69.26735515 418 77 C418.40573242 77.55075195 418.81146484 78.10150391 419.22949219 78.66894531 C446.89378097 116.46876258 456.06085951 164.14560096 449.49609375 209.89550781 C442.95438166 250.83271794 417.75414417 290.98239765 384.44140625 315.52734375 C383.29638841 316.35450175 382.14920923 317.17867524 381 318 C380.41202637 318.42168457 379.82405273 318.84336914 379.21826172 319.27783203 C369.9363957 325.86423817 360.32369952 331.22911941 350 336 C348.86046875 336.53367187 347.7209375 337.06734375 346.546875 337.6171875 C317.89480579 350.47730228 288.25065952 353.36161361 257.16796875 353.1953125 C255.06806068 353.19156891 252.96815082 353.18872833 250.86824036 353.18673706 C245.41865975 353.17920634 239.96919072 353.15965256 234.51965332 353.1373291 C228.9278311 353.11663913 223.33599033 353.10768654 217.74414062 353.09765625 C206.82937884 353.07639346 195.9146988 353.04239017 185 353 C184.86654961 370.37461102 184.73612219 387.74924216 184.60884857 405.12389946 C184.54962639 413.19996038 184.489574 421.27601318 184.42724609 429.35205078 C184.36097276 437.95060855 184.29705397 446.54918146 184.23554993 455.1477747 C184.22434881 456.7108799 184.21306746 458.27398454 184.20170593 459.83708858 C184.06986357 478.00911233 183.98174774 496.17999487 184.00390625 514.35253906 C184.00472356 515.13044902 184.00554087 515.90835898 184.00638294 516.70984197 C184.0143914 524.16746672 184.02632522 531.62503164 184.05495071 539.08260822 C184.06217728 541.12181757 184.06730956 543.16101977 184.07157898 545.20023727 C184.07710529 547.67631652 184.08654485 550.15239119 184.10054016 552.62843704 C184.10220688 553.71020596 184.1038736 554.79197487 184.10559082 555.90652466 C184.10931953 556.84797396 184.11304825 557.78942326 184.11688995 558.75940132 C184 561 184 561 183 563 C150.66 563 118.32 563 85 563 C85 461.69 85 360.38 85 256 C182.5625 255.6875 182.5625 255.6875 213.31469727 255.61206055 C222.44879233 255.57547607 222.44879233 255.57547607 231.58287048 255.5349884 C235.63638968 255.51712501 239.68983738 255.50746156 243.74339294 255.50288391 C248.92884713 255.49675399 254.11406621 255.47628364 259.29943264 255.44583857 C261.19315598 255.43708683 263.08691019 255.43319004 264.98065293 255.43496072 C287.09633415 255.44936424 309.44454863 251.53643952 325.78515625 235.21875 C326.51605469 234.4865625 327.24695313 233.754375 328 233 C328.66 233 329.32 233 330 233 C330.26425781 232.41734375 330.52851563 231.8346875 330.80078125 231.234375 C332.04464099 228.91682526 333.45962272 227.22697629 335.1875 225.25 C346.62568955 210.65974151 350.67767665 191.17636771 348.53125 173.0390625 C346.03269351 155.44922481 338.55477738 140.68728163 326 128 C325.34 127.67 324.68 127.34 324 127 C324 126.34 324 125.68 324 125 C323.45214844 124.74863281 322.90429688 124.49726563 322.33984375 124.23828125 C319.56679479 122.77074115 317.12119578 121.00323663 314.5625 119.1875 C308.32415127 115.00841202 302.14329207 112.26075309 295 110 C294.04222656 109.69191406 293.08445312 109.38382812 292.09765625 109.06640625 C285.5971984 107.28112939 279.2307032 106.7002212 272.52197266 106.41699219 C271.541392 106.37558483 270.56081135 106.33417747 269.55051613 106.29151535 C254.72507636 105.75511278 239.88436951 105.9581654 225.0525322 106.04709625 C219.42051279 106.08020999 213.7884888 106.10057203 208.15640259 106.11834717 C206.21554374 106.12460439 204.2746849 106.13086433 202.33382607 106.13712692 C201.3636502 106.14024305 200.39347434 106.14335917 199.3938992 106.14656973 C186.32011373 106.18937781 173.24646395 106.24198315 160.17285156 106.32226562 C151.29513276 106.37668229 142.41753311 106.41341155 133.5396601 106.42977214 C128.8576269 106.43913634 124.17602858 106.45766354 119.49415207 106.49808502 C115.10911895 106.53586131 110.72462631 106.55049737 106.33943748 106.54724503 C104.73214562 106.55021828 103.12484322 106.56178232 101.51768303 106.58256912 C99.32388548 106.60968951 97.13221075 106.60594411 94.93832397 106.59454346 C93.71179296 106.60045124 92.48526196 106.60635902 91.22156334 106.61244583 C87.09887488 105.82868866 85.66046377 104.16009898 83 101 C82.49629883 100.44618652 81.99259766 99.89237305 81.47363281 99.32177734 C81.05436523 98.8314502 80.63509766 98.34112305 80.203125 97.8359375 C79.72431885 97.27720947 79.2455127 96.71848145 78.75219727 96.14282227 C78.25647217 95.55944092 77.76074707 94.97605957 77.25 94.375 C76.72269287 93.7574585 76.19538574 93.13991699 75.65209961 92.50366211 C72.57763962 88.89183633 69.55050629 85.24641903 66.5625 81.5625 C62.46214086 76.5130523 58.21630651 71.60226983 53.9465332 66.6965332 C47.05247327 58.77233795 40.24241012 50.78246193 33.625 42.625 C29.46334835 37.50870425 25.14817013 32.53760692 20.81494141 27.56713867 C16.7437848 22.88656695 12.77801384 18.13791492 8.87890625 13.3125 C7.26312308 11.32384379 5.61132211 9.37708217 3.9375 7.4375 C2 5 2 5 2 3 C1.01 2.67 0.02 2.34 -1 2 C-0.67 1.34 -0.34 0.68 0 0 Z " fill="#000000" transform="translate(97,226)"/>
<path d="M0 0 C1.12728516 0.14888672 1.12728516 0.14888672 2.27734375 0.30078125 C3.01082031 0.40777344 3.74429687 0.51476562 4.5 0.625 C5.20253906 0.72167969 5.90507813 0.81835938 6.62890625 0.91796875 C8.25390761 1.14448409 9.87718705 1.38330445 11.5 1.625 C9.75213168 7.65565676 6.93488792 13.12916909 4.1875 18.75 C-0.19614861 27.79272357 -4.48586028 36.87137102 -8.6875 46 C-13.69564264 56.8607926 -18.8762157 67.62878272 -24.125 78.375 C-29.3475431 89.07066603 -34.48634391 99.79022233 -39.40332031 110.63085938 C-43.1596541 118.9111624 -47.00788128 127.14604898 -50.875 135.375 C-57.25856824 148.96525749 -63.59748242 162.57555113 -69.91162109 176.19824219 C-78.53403685 194.80018309 -87.18217707 213.38994493 -95.8584137 231.96682739 C-97.88554625 236.3076496 -99.9101671 240.64963676 -101.93359375 244.9921875 C-109.73480229 261.73189036 -117.58220567 278.44948241 -125.45323181 295.15646362 C-127.79482436 300.1269082 -130.13437682 305.09830852 -132.47265625 310.0703125 C-133.79423425 312.88022554 -135.11584789 315.69012182 -136.4375 318.5 C-136.76471039 319.19567078 -137.09192078 319.89134155 -137.42904663 320.60809326 C-141.22115921 328.66940455 -145.01922275 336.72785677 -148.828125 344.78125 C-155.78350731 359.48877174 -162.71647516 374.20445143 -169.54760742 388.97021484 C-173.98340079 398.5448278 -178.48658594 408.08679061 -183 417.625 C-188.05876606 428.31608392 -193.09406308 439.01655822 -198.0625 449.75 C-202.77688231 459.93365554 -207.53081262 470.0978091 -212.3125 480.25 C-212.81461502 481.31610504 -212.81461502 481.31610504 -213.32687378 482.40374756 C-215.37456699 486.75090809 -217.42322455 491.09761371 -219.47210693 495.44421387 C-222.18979826 501.21008948 -224.90611244 506.97661335 -227.62139893 512.74362183 C-228.28708405 514.1573576 -228.95289493 515.57103417 -229.61883545 516.98464966 C-233.29079652 524.77982677 -236.9499311 532.58069223 -240.58203125 540.39453125 C-240.90951355 541.09857086 -241.23699585 541.80261047 -241.57440186 542.52798462 C-243.13533815 545.88418841 -244.69399457 549.24141492 -246.24853516 552.60058594 C-246.79429199 553.77524414 -247.34004883 554.94990234 -247.90234375 556.16015625 C-248.38179443 557.195354 -248.86124512 558.23055176 -249.35522461 559.29711914 C-250.5 561.625 -250.5 561.625 -251.5 562.625 C-253.79151417 562.71290975 -256.08572524 562.73194038 -258.37890625 562.72265625 C-259.0655687 562.7212413 -259.75223114 562.71982635 -260.45970154 562.71836853 C-262.66067801 562.71275479 -264.86155409 562.70020007 -267.0625 562.6875 C-268.55143083 562.68248676 -270.04036324 562.67792355 -271.52929688 562.67382812 C-275.18623075 562.66278093 -278.84310558 562.64550713 -282.5 562.625 C-286.39452767 556.23016698 -289.31928376 549.47859042 -292.3125 542.625 C-296.27041873 533.59744545 -300.33381127 524.62906566 -304.52389526 515.70715332 C-307.91146402 508.48104606 -311.2645313 501.23873619 -314.625 494 C-315.0370871 493.113125 -315.44917419 492.22625 -315.87374878 491.3125 C-320.16137661 482.08089336 -324.43140535 472.84371557 -328.55859375 463.5390625 C-329.0154657 462.51031509 -329.0154657 462.51031509 -329.48156738 461.46078491 C-330.88663352 458.29245607 -332.28286708 455.12061546 -333.66650391 451.94287109 C-334.14909668 450.84797363 -334.63168945 449.75307617 -335.12890625 448.625 C-335.54213135 447.67625 -335.95535645 446.7275 -336.38110352 445.75 C-337.31562581 443.47424357 -337.31562581 443.47424357 -339.5 442.625 C-339.85029884 440.96181642 -340.18014694 439.29430612 -340.5 437.625 C-341.3082175 435.70912704 -342.16443861 433.81293874 -343.0625 431.9375 C-345.5 426.83463173 -345.5 426.83463173 -345.5 424.625 C-346.16 424.295 -346.82 423.965 -347.5 423.625 C-348.19596289 421.635005 -348.85513281 419.63213496 -349.5 417.625 C-350.68938581 414.81085735 -351.98753641 412.04872285 -353.28125 409.28125 C-353.65142242 408.48257004 -354.02159485 407.68389008 -354.40298462 406.86100769 C-355.19227412 405.15884889 -355.98297101 403.45734209 -356.77496338 401.75643921 C-358.00531819 399.11357626 -359.23157276 396.46884893 -360.45654297 393.82348633 C-362.06738591 390.34492523 -363.67916903 386.86680358 -365.29199219 383.38916016 C-368.08273001 377.36956707 -370.86393761 371.34577746 -373.625 365.3125 C-374.03169922 364.43207031 -374.43839844 363.55164063 -374.85742188 362.64453125 C-377.5 356.85647862 -377.5 356.85647862 -377.5 354.625 C-378.16 354.295 -378.82 353.965 -379.5 353.625 C-380.19689135 351.63532995 -380.85813078 349.6330957 -381.5 347.625 C-382.45378748 345.58829072 -383.44276163 343.56779627 -384.4609375 341.5625 C-385.01394531 340.43585938 -385.56695313 339.30921875 -386.13671875 338.1484375 C-387.30019794 335.7901044 -388.48271439 333.44107262 -389.68359375 331.1015625 C-391.2065873 327.95476259 -392.56265517 324.99341853 -393.5 321.625 C-392.171875 318.18359375 -392.171875 318.18359375 -389.5 315.625 C-388.69304688 314.66722656 -387.88609375 313.70945312 -387.0546875 312.72265625 C-386.16176526 311.71066661 -385.26852243 310.69895975 -384.375 309.6875 C-374.38395823 298.08949571 -366.729897 285.06743422 -359.5 271.625 C-358.91734375 270.56667969 -358.3346875 269.50835937 -357.734375 268.41796875 C-349.77915208 253.34393654 -343.44644688 236.77087508 -339.21875 220.26171875 C-338.49729059 217.61506059 -337.56699057 215.14990442 -336.5 212.625 C-334.34959261 214.77540739 -333.69830602 216.25404766 -332.57421875 219.05078125 C-332.196604 219.97745605 -331.81898926 220.90413086 -331.42993164 221.85888672 C-331.0199292 222.8748291 -330.60992676 223.89077148 -330.1875 224.9375 C-326.32174906 234.37534333 -322.26837178 243.70894319 -318.0625 253 C-313.91929953 262.1586935 -309.88110853 271.35125311 -306 280.625 C-302.15340195 289.81191154 -298.16167359 298.92309616 -294.0625 308 C-288.17731077 321.03743229 -282.49540266 334.15067629 -276.91064453 347.31982422 C-275.88988942 349.71147924 -274.86017667 352.09786979 -273.81982422 354.48095703 C-273.54170395 355.12094131 -273.26358368 355.7609256 -272.97703552 356.42030334 C-272.19279158 358.22340999 -271.40496428 360.02495684 -270.61694336 361.82641602 C-269.5 364.625 -269.5 364.625 -269.5 366.625 C-268.51 366.625 -267.52 366.625 -266.5 366.625 C-266.15710938 365.47644531 -265.81421875 364.32789063 -265.4609375 363.14453125 C-262.94874536 355.62407743 -259.45183282 348.49776153 -256.125 341.3125 C-255.40498675 339.74846041 -254.68534639 338.1842491 -253.96606445 336.61987305 C-251.81763746 331.95170045 -249.66022411 327.28772318 -247.5 322.625 C-247.03222137 321.61499939 -247.03222137 321.61499939 -246.55499268 320.58459473 C-243.5440602 314.08481049 -240.52532068 307.58866781 -237.50390625 301.09375 C-232.79202586 290.95757094 -228.14055713 280.79398712 -223.5 270.625 C-222.88690433 269.28270442 -222.27378459 267.94041984 -221.66064453 266.59814453 C-219.99781407 262.95716682 -218.3371234 259.31521854 -216.67767334 255.67269897 C-216.03010102 254.25175614 -215.38204936 252.83103163 -214.73345947 251.41055298 C-211.57629785 244.49417165 -208.45745172 237.57012452 -205.48828125 230.5703125 C-202.33789438 223.16821383 -198.94167087 215.89471239 -195.5 208.625 C-194.93812988 207.43600098 -194.37625977 206.24700195 -193.79736328 205.02197266 C-192.94442233 203.21734465 -192.09148062 201.41271701 -191.23843384 199.60813904 C-184.90695766 186.20672491 -178.73138857 172.74889141 -172.75 159.1875 C-166.96861286 146.08149902 -161.04170183 133.05057033 -155 120.0625 C-154.59999786 119.20248383 -154.19999573 118.34246765 -153.78787231 117.45639038 C-152.98327139 115.7266598 -152.1786501 113.99693868 -151.37400818 112.26722717 C-150.97859329 111.41720627 -150.58317841 110.56718536 -150.17578125 109.69140625 C-149.78225967 108.84561508 -149.3887381 107.99982391 -148.98329163 107.12840271 C-143.38755525 95.09319562 -137.87305766 83.02082209 -132.37631226 70.94013977 C-130.39715397 66.59078367 -128.41055954 62.24491048 -126.41914368 57.90115356 C-125.0909996 55.00134563 -123.76764096 52.09937167 -122.44546509 49.19683838 C-121.82091588 47.82823679 -121.19446544 46.46050102 -120.56600952 45.09368896 C-119.70541466 43.22105548 -118.85186601 41.34536681 -118 39.46875 C-117.5153125 38.40849609 -117.030625 37.34824219 -116.53125 36.25585938 C-115.31752672 33.63044512 -115.31752672 33.63044512 -115.5 30.625 C-114.84 30.295 -114.18 29.965 -113.5 29.625 C-112.51494334 27.68029194 -111.61245183 25.69350588 -110.75 23.69140625 C-110.2240625 22.48548828 -109.698125 21.27957031 -109.15625 20.03710938 C-108.60358363 18.75415725 -108.05150687 17.47095099 -107.5 16.1875 C-106.42222742 13.68629598 -105.33780698 11.18829653 -104.25 8.69140625 C-103.77046875 7.57709229 -103.2909375 6.46277832 -102.796875 5.31469727 C-101.5 2.625 -101.5 2.625 -99.5 0.625 C-96.73481915 0.44209041 -94.07099362 0.38371117 -91.3059082 0.41381836 C-90.03486488 0.41578972 -90.03486488 0.41578972 -88.73814392 0.4178009 C-85.92557786 0.42431258 -83.11328035 0.44476187 -80.30078125 0.46484375 C-78.34743036 0.4711135 -76.39407592 0.47635381 -74.4407196 0.48060608 C-69.28616562 0.49393602 -64.13172916 0.51837083 -58.97723389 0.54595947 C-50.74428505 0.5889891 -42.5113067 0.61886098 -34.27828026 0.6420002 C-31.40506386 0.65219549 -28.53194612 0.66925545 -25.6587677 0.68699646 C-23.88620085 0.6938293 -22.11363311 0.70043793 -20.34106445 0.70678711 C-19.54650848 0.71352448 -18.75195251 0.72026184 -17.93331909 0.72720337 C-11.9250025 0.73939128 -5.93454954 -0.81932214 0 0 Z " fill="#000000" transform="translate(907.5,225.375)"/>
<path d="M0 0 C4.29 0 8.58 0 13 0 C13 0.33 13 0.66 13 1 C8.71 1 4.42 1 0 1 C0 0.67 0 0.34 0 0 Z " fill="#050606" transform="translate(190,480)"/>
<path d="M0 0 C3.96 0 7.92 0 12 0 C12 0.33 12 0.66 12 1 C8.04 1 4.08 1 0 1 C0 0.67 0 0.34 0 0 Z " fill="#030403" transform="translate(204,480)"/>
<path d="M0 0 C2.97 0 5.94 0 9 0 C9 0.33 9 0.66 9 1 C6.03 1 3.06 1 0 1 C0 0.67 0 0.34 0 0 Z " fill="#020302" transform="translate(262,480)"/>
<path d="M0 0 C2.97 0 5.94 0 9 0 C9 0.33 9 0.66 9 1 C6.03 1 3.06 1 0 1 C0 0.67 0 0.34 0 0 Z " fill="#020203" transform="translate(238,480)"/>
<path d="M0 0 C2.31 0 4.62 0 7 0 C7 0.33 7 0.66 7 1 C4.69 1 2.38 1 0 1 C0 0.67 0 0.34 0 0 Z " fill="#101010" transform="translate(190,790)"/>
<path d="M0 0 C0.33 0 0.66 0 1 0 C1 2.31 1 4.62 1 7 C0.67 7 0.34 7 0 7 C0 4.69 0 2.38 0 0 Z " fill="#0A0A0A" transform="translate(180,730)"/>
<path d="M0 0 C1.98 0 3.96 0 6 0 C6 0.33 6 0.66 6 1 C4.02 1 2.04 1 0 1 C0 0.67 0 0.34 0 0 Z " fill="#0B0B0B" transform="translate(215,790)"/>
<path d="M0 0 C1.98 0 3.96 0 6 0 C6 0.33 6 0.66 6 1 C4.02 1 2.04 1 0 1 C0 0.67 0 0.34 0 0 Z " fill="#0D0D0D" transform="translate(199,790)"/>
<path d="M0 0 C0.33 0 0.66 0 1 0 C1 1.98 1 3.96 1 6 C0.67 6 0.34 6 0 6 C0 4.02 0 2.04 0 0 Z " fill="#09090A" transform="translate(180,546)"/>
<path d="M0 0 C1.98 0 3.96 0 6 0 C6 0.33 6 0.66 6 1 C4.02 1 2.04 1 0 1 C0 0.67 0 0.34 0 0 Z " fill="#030303" transform="translate(296,480)"/>
<path d="M0 0 C0.33 0 0.66 0 1 0 C1 1.65 1 3.3 1 5 C0.67 5 0.34 5 0 5 C0 3.35 0 1.7 0 0 Z " fill="#0A0B0A" transform="translate(180,716)"/>
<path d="M0 0 C0.33 0 0.66 0 1 0 C1 1.65 1 3.3 1 5 C0.67 5 0.34 5 0 5 C0 3.35 0 1.7 0 0 Z " fill="#080909" transform="translate(180,540)"/>
<path d="M0 0 C1.65 0 3.3 0 5 0 C5 0.33 5 0.66 5 1 C3.35 1 1.7 1 0 1 C0 0.67 0 0.34 0 0 Z " fill="#020403" transform="translate(288,480)"/>
<path d="M0 0 C4 1 4 1 4 1 Z " fill="#0E0E0E" transform="translate(262,790)"/>
<path d="M0 0 C4 1 4 1 4 1 Z " fill="#0A0B09" transform="translate(238,790)"/>
<path d="M0 0 C1 4 1 4 1 4 Z " fill="#0C0C0B" transform="translate(180,748)"/>
<path d="M0 0 C1 4 1 4 1 4 Z " fill="#090909" transform="translate(180,660)"/>
<path d="M0 0 C1 4 1 4 1 4 Z " fill="#080909" transform="translate(180,625)"/>
<path d="M0 0 C1 4 1 4 1 4 Z " fill="#080909" transform="translate(180,596)"/>
<path d="M0 0 C4 1 4 1 4 1 Z " fill="#020302" transform="translate(255,480)"/>
<path d="M0 0 C4 1 4 1 4 1 Z " fill="#0A0B0A" transform="translate(183,480)"/>
<path d="M0 0 C3 1 3 1 3 1 Z " fill="#0D0C0C" transform="translate(206,790)"/>
<path d="" fill="#141513" transform="translate(0,0)"/>
<path d="" fill="#080909" transform="translate(0,0)"/>
<path d="" fill="#090A09" transform="translate(0,0)"/>
<path d="" fill="#0C0B0B" transform="translate(0,0)"/>
<path d="" fill="#101010" transform="translate(0,0)"/>
<path d="M0 0 C3 1 3 1 3 1 Z " fill="#050606" transform="translate(376,480)"/>
<path d="M0 0 C3 1 3 1 3 1 Z " fill="#050503" transform="translate(336,480)"/>
<path d="M0 0 C3 1 3 1 3 1 Z " fill="#050504" transform="translate(318,480)"/>
<path d="M0 0 C3 1 3 1 3 1 Z " fill="#030303" transform="translate(312,480)"/>
<path d="M0 0 C3 1 3 1 3 1 Z " fill="#030404" transform="translate(250,480)"/>
<path d="M0 0 C3 1 3 1 3 1 Z " fill="#020303" transform="translate(234,480)"/>
<path d="" fill="#030205" transform="translate(0,0)"/>
<path d="M0 0 C2 1 2 1 2 1 Z " fill="#151615" transform="translate(278,790)"/>
<path d="M0 0 C2 1 2 1 2 1 Z " fill="#101212" transform="translate(271,790)"/>
<path d="M0 0 C2 1 2 1 2 1 Z " fill="#101010" transform="translate(267,790)"/>
<path d="M0 0 C2 1 2 1 2 1 Z " fill="#0E0E0E" transform="translate(259,790)"/>
<path d="M0 0 C2 1 2 1 2 1 Z " fill="#0C0C0B" transform="translate(243,790)"/>
<path d="M0 0 C2 1 2 1 2 1 Z " fill="#0C0C0C" transform="translate(235,790)"/>
<path d="M0 0 C2 1 2 1 2 1 Z " fill="#0A0C0B" transform="translate(232,790)"/>
<path d="M0 0 C2 1 2 1 2 1 Z " fill="#0B0C0B" transform="translate(227,790)"/>
<path d="M0 0 C2 1 2 1 2 1 Z " fill="#0C0D0C" transform="translate(211,790)"/>
<path d="" fill="#0F0F10" transform="translate(0,0)"/>
<path d="" fill="#0A0A0B" transform="translate(0,0)"/>
<path d="" fill="#080B0A" transform="translate(0,0)"/>
<path d="" fill="#080A0A" transform="translate(0,0)"/>
<path d="" fill="#090A09" transform="translate(0,0)"/>
<path d="" fill="#090A09" transform="translate(0,0)"/>
<path d="" fill="#09090A" transform="translate(0,0)"/>
<path d="" fill="#090A09" transform="translate(0,0)"/>
<path d="" fill="#090A08" transform="translate(0,0)"/>
<path d="" fill="#080A09" transform="translate(0,0)"/>
<path d="" fill="#08090A" transform="translate(0,0)"/>
<path d="" fill="#080A0A" transform="translate(0,0)"/>
<path d="" fill="#080909" transform="translate(0,0)"/>
<path d="" fill="#010402" transform="translate(0,0)"/>
<path d="" fill="#080809" transform="translate(0,0)"/>
<path d="" fill="#070908" transform="translate(0,0)"/>
<path d="" fill="#080909" transform="translate(0,0)"/>
<path d="" fill="#080A0A" transform="translate(0,0)"/>
<path d="" fill="#020103" transform="translate(0,0)"/>
<path d="" fill="#040404" transform="translate(0,0)"/>
<path d="M0 0 C2 1 2 1 2 1 Z " fill="#040304" transform="translate(512,544)"/>
<path d="" fill="#09090A" transform="translate(0,0)"/>
<path d="" fill="#080A0A" transform="translate(0,0)"/>
<path d="" fill="#090A09" transform="translate(0,0)"/>
<path d="" fill="#040302" transform="translate(0,0)"/>
<path d="M0 0 C2 1 2 1 2 1 Z " fill="#050403" transform="translate(368,480)"/>
<path d="M0 0 C2 1 2 1 2 1 Z " fill="#040403" transform="translate(328,480)"/>
<path d="M0 0 C2 1 2 1 2 1 Z " fill="#030304" transform="translate(307,480)"/>
<path d="M0 0 C2 1 2 1 2 1 Z " fill="#030303" transform="translate(304,480)"/>
<path d="M0 0 C2 1 2 1 2 1 Z " fill="#030403" transform="translate(231,480)"/>
<path d="" fill="#040304" transform="translate(0,0)"/>
<path d="" fill="#060606" transform="translate(0,0)"/>
<path d="" fill="#1B1A1D" transform="translate(0,0)"/>
<path d="" fill="#161715" transform="translate(0,0)"/>
<path d="" fill="#0C0D0D" transform="translate(0,0)"/>
<path d="" fill="#0E0C0E" transform="translate(0,0)"/>
<path d="" fill="#0C0B0B" transform="translate(0,0)"/>
<path d="" fill="#0A0B0C" transform="translate(0,0)"/>
<path d="" fill="#090B0B" transform="translate(0,0)"/>
<path d="" fill="#1A1C1C" transform="translate(0,0)"/>
<path d="" fill="#10100E" transform="translate(0,0)"/>
<path d="" fill="#0E0F0D" transform="translate(0,0)"/>
<path d="" fill="#0D0E0F" transform="translate(0,0)"/>
<path d="" fill="#0D0E0E" transform="translate(0,0)"/>
<path d="" fill="#0D0D0C" transform="translate(0,0)"/>
<path d="" fill="#0F0F0C" transform="translate(0,0)"/>
<path d="" fill="#050404" transform="translate(0,0)"/>
<path d="" fill="#0A0B0C" transform="translate(0,0)"/>
<path d="" fill="#0A0C0C" transform="translate(0,0)"/>
<path d="" fill="#040505" transform="translate(0,0)"/>
<path d="" fill="#0C0B0A" transform="translate(0,0)"/>
<path d="" fill="#0B0C0A" transform="translate(0,0)"/>
<path d="" fill="#0A090A" transform="translate(0,0)"/>
<path d="" fill="#0A090A" transform="translate(0,0)"/>
<path d="" fill="#040503" transform="translate(0,0)"/>
<path d="" fill="#08090C" transform="translate(0,0)"/>
<path d="" fill="#040203" transform="translate(0,0)"/>
<path d="" fill="#0A0A0A" transform="translate(0,0)"/>
<path d="" fill="#0A090A" transform="translate(0,0)"/>
<path d="" fill="#060505" transform="translate(0,0)"/>
<path d="" fill="#020304" transform="translate(0,0)"/>
<path d="" fill="#060707" transform="translate(0,0)"/>
<path d="" fill="#040302" transform="translate(0,0)"/>
<path d="" fill="#0A0A08" transform="translate(0,0)"/>
<path d="" fill="#0A0B09" transform="translate(0,0)"/>
<path d="" fill="#090909" transform="translate(0,0)"/>
<path d="" fill="#030302" transform="translate(0,0)"/>
<path d="" fill="#080A09" transform="translate(0,0)"/>
<path d="" fill="#070909" transform="translate(0,0)"/>
<path d="" fill="#0A0908" transform="translate(0,0)"/>
<path d="" fill="#090A09" transform="translate(0,0)"/>
<path d="" fill="#040302" transform="translate(0,0)"/>
<path d="" fill="#030203" transform="translate(0,0)"/>
<path d="" fill="#09090A" transform="translate(0,0)"/>
<path d="" fill="#090909" transform="translate(0,0)"/>
<path d="" fill="#080A09" transform="translate(0,0)"/>
<path d="" fill="#030403" transform="translate(0,0)"/>
<path d="" fill="#080A09" transform="translate(0,0)"/>
<path d="" fill="#040302" transform="translate(0,0)"/>
<path d="" fill="#030102" transform="translate(0,0)"/>
<path d="" fill="#090909" transform="translate(0,0)"/>
<path d="" fill="#08090A" transform="translate(0,0)"/>
<path d="" fill="#09090A" transform="translate(0,0)"/>
<path d="" fill="#0A0909" transform="translate(0,0)"/>
<path d="" fill="#090908" transform="translate(0,0)"/>
<path d="" fill="#030202" transform="translate(0,0)"/>
<path d="" fill="#090A08" transform="translate(0,0)"/>
<path d="" fill="#020203" transform="translate(0,0)"/>
<path d="" fill="#080B0A" transform="translate(0,0)"/>
<path d="" fill="#080809" transform="translate(0,0)"/>
<path d="" fill="#050402" transform="translate(0,0)"/>
<path d="" fill="#0A0A09" transform="translate(0,0)"/>
<path d="" fill="#020203" transform="translate(0,0)"/>
<path d="" fill="#080A0A" transform="translate(0,0)"/>
<path d="" fill="#060403" transform="translate(0,0)"/>
<path d="" fill="#030304" transform="translate(0,0)"/>
<path d="" fill="#030203" transform="translate(0,0)"/>
<path d="" fill="#020103" transform="translate(0,0)"/>
<path d="" fill="#0A0A0A" transform="translate(0,0)"/>
<path d="" fill="#030405" transform="translate(0,0)"/>
<path d="" fill="#040403" transform="translate(0,0)"/>
<path d="" fill="#030304" transform="translate(0,0)"/>
<path d="" fill="#0B0C09" transform="translate(0,0)"/>
<path d="" fill="#0B0C0B" transform="translate(0,0)"/>
<path d="" fill="#040103" transform="translate(0,0)"/>
<path d="" fill="#0B0B0A" transform="translate(0,0)"/>
<path d="" fill="#080C0A" transform="translate(0,0)"/>
<path d="" fill="#060607" transform="translate(0,0)"/>
<path d="" fill="#010302" transform="translate(0,0)"/>
<path d="" fill="#0C0D0C" transform="translate(0,0)"/>
<path d="" fill="#010001" transform="translate(0,0)"/>
<path d="" fill="#030504" transform="translate(0,0)"/>
<path d="" fill="#020102" transform="translate(0,0)"/>
<path d="" fill="#060606" transform="translate(0,0)"/>
<path d="" fill="#050805" transform="translate(0,0)"/>
<path d="" fill="#060505" transform="translate(0,0)"/>
<path d="" fill="#060704" transform="translate(0,0)"/>
<path d="" fill="#050704" transform="translate(0,0)"/>
<path d="" fill="#030706" transform="translate(0,0)"/>
<path d="" fill="#030403" transform="translate(0,0)"/>
<path d="" fill="#040603" transform="translate(0,0)"/>
<path d="" fill="#030403" transform="translate(0,0)"/>
<path d="" fill="#040504" transform="translate(0,0)"/>
<path d="" fill="#030201" transform="translate(0,0)"/>
<path d="" fill="#030604" transform="translate(0,0)"/>
<path d="" fill="#040302" transform="translate(0,0)"/>
<path d="" fill="#030303" transform="translate(0,0)"/>
<path d="" fill="#030403" transform="translate(0,0)"/>
<path d="" fill="#050402" transform="translate(0,0)"/>
<path d="" fill="#040405" transform="translate(0,0)"/>
<path d="" fill="#060A0A" transform="translate(0,0)"/>
<path d="" fill="#070505" transform="translate(0,0)"/>
<path d="" fill="#090A0A" transform="translate(0,0)"/>
<path d="" fill="#010202" transform="translate(0,0)"/>
<path d="" fill="#030201" transform="translate(0,0)"/>
<path d="" fill="#000302" transform="translate(0,0)"/>
<path d="" fill="#0E0C0F" transform="translate(0,0)"/>
<path d="" fill="#030404" transform="translate(0,0)"/>
<path d="" fill="#0D0E0D" transform="translate(0,0)"/>
<path d="" fill="#030204" transform="translate(0,0)"/>
<path d="" fill="#060305" transform="translate(0,0)"/>
<path d="" fill="#050506" transform="translate(0,0)"/>
<path d="" fill="#040201" transform="translate(0,0)"/>
<path d="" fill="#040405" transform="translate(0,0)"/>
<path d="" fill="#030404" transform="translate(0,0)"/>
<path d="" fill="#040403" transform="translate(0,0)"/>
<path d="" fill="#040506" transform="translate(0,0)"/>
<path d="" fill="#090706" transform="translate(0,0)"/>
<path d="" fill="#0B0A08" transform="translate(0,0)"/>
<path d="" fill="#252526" transform="translate(0,0)"/>
<path d="" fill="#100D0D" transform="translate(0,0)"/>
<path d="" fill="#0E0D0B" transform="translate(0,0)"/>
<path d="" fill="#0D0D0B" transform="translate(0,0)"/>
<path d="" fill="#0D0F0C" transform="translate(0,0)"/>
<path d="" fill="#0F110C" transform="translate(0,0)"/>
<path d="" fill="#0D0F0D" transform="translate(0,0)"/>
<path d="" fill="#0D0F0D" transform="translate(0,0)"/>
<path d="" fill="#0E0E0F" transform="translate(0,0)"/>
<path d="" fill="#0E0D0E" transform="translate(0,0)"/>
<path d="" fill="#0F0E11" transform="translate(0,0)"/>
<path d="" fill="#121110" transform="translate(0,0)"/>
</svg>
