<?xml version="1.0" encoding="UTF-8"?>
<svg version="1.1" xmlns="http://www.w3.org/2000/svg" width="1024" height="1024">
<path d="M0 0 C337.92 0 675.84 0 1024 0 C1024 337.92 1024 675.84 1024 1024 C686.08 1024 348.16 1024 0 1024 C0 686.08 0 348.16 0 0 Z " fill="#255D8C" transform="translate(0,0)"/>
<path d="M0 0 C37.20677139 -0.04588131 74.41353848 -0.08107176 111.62033249 -0.10213066 C116.02325556 -0.10463176 120.42617857 -0.10722044 124.82910156 -0.10986328 C125.70556209 -0.1103879 126.58202262 -0.11091252 127.48504256 -0.11145304 C141.63511503 -0.12013114 155.78517108 -0.13588666 169.93523385 -0.15430559 C184.47859865 -0.17307713 199.02195492 -0.18413198 213.56533134 -0.18817699 C222.52323874 -0.19090708 231.4810997 -0.19949695 240.43899278 -0.21583293 C246.60035293 -0.2264896 252.76168944 -0.22958123 258.92305811 -0.22700275 C262.46598149 -0.22573481 266.00882434 -0.22753343 269.55173302 -0.23841095 C330.38666922 -0.39742863 384.60829568 13.61133148 429.60302734 56.66601562 C430.79431246 57.80358673 431.99929764 58.92678224 433.20703125 60.046875 C454.15778868 80.01623238 469.27535843 107.69338214 478 135 C478.23944336 135.74846191 478.47888672 136.49692383 478.72558594 137.26806641 C482.29301484 148.67542747 484.48781594 160.15408709 486 172 C486.13277344 173.01964844 486.26554687 174.03929687 486.40234375 175.08984375 C486.71387693 178.0643455 486.88142285 181.01115835 487 184 C487.03254883 184.7130127 487.06509766 185.42602539 487.09863281 186.16064453 C488.9868947 233.14784817 473.99781401 280.98868963 442.375 316.25 C441.62605469 317.06082031 440.87710937 317.87164062 440.10546875 318.70703125 C438.23791796 320.74089454 436.4601578 322.82147023 434.6875 324.9375 C399.4220604 365.12557533 349.04836524 377.71913463 298 383 C265 383 232 383 198 383 C198 459.23 198 535.46 198 614 C163.02 614 128.04 614 92 614 C92 503.12 92 392.24 92 278 C195.9375 277.6875 195.9375 277.6875 228.69116211 277.61206055 C238.42530852 277.57547326 238.42530852 277.57547326 248.15943909 277.5349884 C252.47703633 277.51713524 256.79456653 277.5074638 261.11219788 277.50288391 C266.63730121 277.49674906 272.16218435 277.47626188 277.68720543 277.44583857 C279.70382905 277.4370945 281.72048158 277.4331884 283.73712337 277.43496072 C310.78293216 277.45151545 334.60170584 272.1391402 355 253 C373.11292624 233.61151557 377.93920022 210.72505149 377.17041016 185.04443359 C376.0930547 165.79712331 365.24179756 146.20840101 351.44921875 133.0390625 C334.56697958 118.98399257 313.51914846 110.58794988 291.40026855 110.99414062 C290.12107662 111.01085092 290.12107662 111.01085092 288.81604242 111.02789879 C286.95211112 111.05279999 285.08821106 111.08012966 283.22434616 111.10958481 C279.12650548 111.17417365 275.02853355 111.22676006 270.93053341 111.28010368 C268.72417927 111.3088894 266.5178328 111.33826766 264.31149387 111.36819649 C250.14561317 111.55802307 235.97897783 111.66260233 221.81227398 111.77027512 C208.02328349 111.87550526 194.23593064 112.00789413 180.44824219 112.22753906 C169.48889714 112.40197246 158.53081343 112.51582203 147.5701375 112.55883408 C141.77436667 112.58378273 135.98245581 112.63865781 130.18797302 112.7668457 C124.72999918 112.88681721 119.27724417 112.9257325 113.81805038 112.9045372 C111.82403655 112.91077162 109.82985409 112.94582078 107.83696365 113.01303482 C93.22144561 113.48219637 93.22144561 113.48219637 87.83035469 109.32823944 C83.75899224 105.29156829 80.47766094 100.7900356 77.34088612 96.00666428 C75.55964278 93.34099616 73.57355346 90.94344513 71.5 88.5 C70.80261719 87.64664063 70.10523438 86.79328125 69.38671875 85.9140625 C63.93970972 79.26354084 58.46695681 72.63412471 53 66 C44.63000115 55.84304831 36.27094966 45.67774065 27.9453125 35.484375 C24.49494101 31.26304138 21.04005758 27.04594674 17.56640625 22.84375 C0 1.58641155 0 1.58641155 0 0 Z " fill="#F4F4F4" transform="translate(66,182)"/>
<path d="M0 0 C0.88399947 0.00092179 1.76799894 0.00184359 2.67878628 0.00279331 C3.68985943 0.00141865 4.70093258 0.00004398 5.74264431 -0.00137234 C7.42038433 0.00402058 7.42038433 0.00402058 9.13201809 0.00952244 C10.30259258 0.00937641 11.47316708 0.00923038 12.67921352 0.00907993 C15.89807713 0.00965887 19.11689773 0.01468791 22.33575273 0.02165389 C25.6963417 0.02788826 29.05693143 0.02849129 32.41752529 0.0296793 C38.78529112 0.03279237 45.15303986 0.04100543 51.52079815 0.05102879 C58.76856499 0.06219068 66.01633263 0.06770057 73.26410592 0.07272422 C88.17703605 0.08318806 103.08995017 0.10078703 118.0028677 0.12304783 C117.54189671 1.54080446 117.07784889 2.95756087 116.61254787 4.37390232 C116.35446976 5.16296719 116.09639164 5.95203205 115.83049297 6.76500797 C114.57104524 10.35338069 112.96096466 13.73772795 111.2997427 17.15429783 C110.94538143 17.89496494 110.59102016 18.63563206 110.22592068 19.39874363 C109.46692069 20.98458764 108.70572639 22.56938302 107.94250393 24.1531992 C105.89558741 28.40287975 103.86699428 32.66127985 101.8388052 36.91992283 C101.2220039 38.21425236 101.2220039 38.21425236 100.59274197 39.53472996 C96.75653501 47.60376011 93.04939832 55.72806134 89.3778677 63.87304783 C84.35514918 75.00614748 79.22677416 86.08291596 74.0028677 97.12304783 C68.39714368 108.97149071 62.90745292 120.86617204 57.50823879 132.81005955 C52.61858288 143.62268619 47.62230236 154.38066527 42.56408596 165.1153574 C37.81217491 175.20501885 33.15930432 185.33555734 28.5653677 195.49804783 C23.15267434 207.47115224 17.61310511 219.37827041 11.99389553 231.25573826 C6.72698878 242.39414431 1.58336266 253.58310927 -3.49176121 264.81005955 C-8.07884578 274.95360211 -12.75202404 285.05250321 -17.4971323 295.12304783 C-22.6030849 305.96038897 -27.61999586 316.83389337 -32.5596323 327.74804783 C-37.33485502 338.29651124 -42.15395172 348.82206166 -47.0596323 359.31054783 C-47.34802982 359.92715275 -47.63642735 360.54375767 -47.93356419 361.17904758 C-49.38148119 364.27355974 -50.83073838 367.36744184 -52.28082371 370.46093845 C-55.1077954 376.49186481 -57.92878634 382.52558623 -60.7471323 388.56054783 C-61.03085697 389.16805882 -61.31458164 389.7755698 -61.60690403 390.40149021 C-66.68299124 401.27430733 -71.7205643 412.16476128 -76.7471323 423.06054783 C-77.31310123 424.28732243 -77.31310123 424.28732243 -77.89050388 425.53888035 C-81.74401358 433.89262401 -85.59450333 442.24775467 -89.44151402 450.60449314 C-97.66006793 468.45542998 -105.92499909 486.28211705 -114.31231785 504.05444431 C-118.38579061 512.68736503 -122.42587974 521.33481662 -126.4346323 529.99804783 C-131.759355 541.50174909 -137.16356709 552.96657144 -142.58627415 564.42431736 C-148.10280288 576.08198136 -153.56895381 587.76168807 -158.97564793 599.47070408 C-159.70944675 601.05818455 -159.70944675 601.05818455 -160.4580698 602.67773533 C-160.87878757 603.59023045 -161.29950535 604.50272556 -161.73297215 605.44287205 C-163.10818497 608.35849321 -164.55546264 611.23970851 -165.9971323 614.12304783 C-178.5371323 614.12304783 -191.0771323 614.12304783 -203.9971323 614.12304783 C-213.1471323 595.82304783 -213.1471323 595.82304783 -217.3721323 586.56054783 C-218.40059628 584.31957894 -219.42925537 582.0786996 -220.4580698 579.83789158 C-220.73189487 579.24048161 -221.00571995 578.64307163 -221.28784275 578.02755833 C-224.78355377 570.40112716 -228.30374611 562.78599372 -231.82122898 555.16958714 C-233.3894425 551.77345984 -234.95676781 548.37692297 -236.52410984 544.98039341 C-239.43237773 538.67805555 -242.34168801 532.37620624 -245.2549448 526.07617283 C-252.86258429 509.62051785 -260.4018759 493.13397924 -267.93267918 476.64306736 C-269.95834423 472.20753882 -271.98531632 467.7726086 -274.0127573 463.33789158 C-274.34195164 462.61782932 -274.67114597 461.89776707 -275.0103159 461.15588474 C-276.0058982 458.97826185 -277.00150943 456.80065218 -277.9971323 454.62304783 C-281.69925368 446.52584971 -285.40126245 438.42860186 -289.09971714 430.32972813 C-297.93387029 410.97878879 -297.93387029 410.97878879 -306.82354832 391.65332127 C-307.7982946 389.54273215 -308.7714931 387.43142738 -309.74298191 385.31933689 C-312.19925787 379.98415414 -314.68630512 374.66609809 -317.2158823 369.36523533 C-317.99451633 367.71527561 -317.99451633 367.71527561 -318.78888035 366.03198338 C-319.77662645 363.93962347 -320.77491503 361.85219625 -321.78546238 359.77075291 C-322.22269627 358.83900242 -322.65993015 357.90725193 -323.11041355 356.94726658 C-323.50011326 356.13346531 -323.88981297 355.31966404 -324.29132175 354.48120213 C-325.14478646 351.62972666 -324.85637713 349.94713712 -323.9971323 347.12304783 C-322.6846323 345.49023533 -322.6846323 345.49023533 -320.9971323 343.99804783 C-317.02927857 340.25739227 -313.65650059 336.17792755 -310.2471323 331.92773533 C-308.85084776 330.18722786 -307.4372021 328.46031794 -305.9971323 326.75586033 C-296.01691618 314.80374667 -288.54955751 301.18687868 -281.9971323 287.12304783 C-281.21402683 285.45048923 -281.21402683 285.45048923 -280.41510105 283.74414158 C-272.5528143 266.1732791 -267.68504687 247.97152628 -263.9971323 229.12304783 C-263.3371323 229.12304783 -262.6771323 229.12304783 -261.9971323 229.12304783 C-250.62138586 254.11960349 -239.40880721 279.17987914 -228.40579319 304.34263706 C-224.52420166 313.21435844 -220.60842686 322.07088843 -216.69021702 330.92648411 C-210.15477886 345.6976275 -203.63309018 360.47475684 -197.13629246 375.26294041 C-196.34213934 377.07051809 -195.54771068 378.87797474 -194.75299168 380.68530369 C-193.65511973 383.18240127 -192.55836616 385.67998683 -191.46197605 388.17773533 C-191.13894001 388.91212833 -190.81590397 389.64652134 -190.48307896 390.40316868 C-188.92622109 393.95377048 -187.40916652 397.51221805 -185.9971323 401.12304783 C-181.80561112 392.91453675 -177.91251653 384.61349703 -174.1846323 376.18554783 C-173.04272083 373.61796946 -171.89752129 371.05186924 -170.75103855 368.48632908 C-170.45135166 367.81568424 -170.15166477 367.14503941 -169.84289646 366.454072 C-166.16161436 358.2333981 -162.39110026 350.05378815 -158.6221323 341.87304783 C-153.09183765 329.86582171 -147.58511095 317.84856185 -142.1221323 305.81054783 C-137.51780577 295.66627686 -132.90149029 285.52778783 -128.2537241 275.40332127 C-125.62833929 269.68371588 -123.00870774 263.96153725 -120.3955698 258.23632908 C-113.27629939 242.64086806 -106.12850034 227.05925447 -98.9346323 211.49804783 C-92.75569531 198.13110263 -86.62248803 184.74452366 -80.53985691 171.33349705 C-79.9292761 169.98729889 -79.31868038 168.64110749 -78.7080698 167.29492283 C-78.40585011 166.62860844 -78.10363041 165.96229404 -77.79225254 165.27578831 C-74.21078994 157.38381461 -70.6035235 149.50365227 -66.9971323 141.62304783 C-62.14280126 131.01482279 -57.30198807 120.40065128 -52.48068333 109.77737522 C-46.78711044 97.23287649 -41.06249874 84.70297072 -35.3096323 72.18554783 C-34.76892094 71.00889561 -34.76892094 71.00889561 -34.21728611 69.80847263 C-30.71381522 62.18602159 -27.20545233 54.5659186 -23.6768198 46.95507908 C-22.67928897 44.80279789 -21.68188742 42.65045678 -20.6846323 40.49804783 C-20.21670261 39.48822849 -19.74877293 38.47840916 -19.26666355 37.43798923 C-14.98654412 28.16688095 -10.84527822 18.83546267 -6.74005222 9.4858408 C-6.02619358 7.86573093 -6.02619358 7.86573093 -5.29791355 6.21289158 C-4.87679295 5.25245945 -4.45567234 4.29202732 -4.0217905 3.30249119 C-2.54279156 0.15666713 -2.54279156 0.15666713 0 0 Z " fill="#F4F4F4" transform="translate(845.9971323013306,181.87695217132568)"/>
<path d="M0 0 C86.625 0.495 86.625 0.495 175 1 C175 1.33 175 1.66 175 2 C117.91 2 60.82 2 2 2 C2 111.89 2 221.78 2 335 C35.66 335 69.32 335 104 335 C104 258.77 104 182.54 104 104 C104.33 104 104.66 104 105 104 C105.33 180.56 105.66 257.12 106 336 C71.02 336 36.04 336 0 336 C0 225.12 0 114.24 0 0 Z " fill="#FBFDF9" transform="translate(158,460)"/>
<path d="M0 0 C1.1817019 3.5451057 0.7911988 4.14017506 -0.65234375 7.44921875 C-1.01650391 8.29677734 -1.38066406 9.14433594 -1.75585938 10.01757812 C-2.14580078 10.89865234 -2.53574219 11.77972656 -2.9375 12.6875 C-3.32357422 13.58017578 -3.70964844 14.47285156 -4.10742188 15.39257812 C-5.06311123 17.59892268 -6.02755469 19.80100147 -7 22 C-9.27795022 19.72204978 -10.05219877 18.06212707 -11 15 C-10.75 12.75 -10.75 12.75 -10 11 C-9.34 10.67 -8.68 10.34 -8 10 C-7.34 9.01 -6.68 8.02 -6 7 C-5.01 7.66 -4.02 8.32 -3 9 C-2.01 6.03 -1.02 3.06 0 0 Z " fill="#1D4F7B" transform="translate(668,563)"/>
<path d="M0 0 C1.35204082 4.05612247 -0.19663894 6.21718313 -1.96484375 9.85546875 C-2.27700333 10.51710526 -2.5891629 11.17874176 -2.91078186 11.86042786 C-3.91052948 13.97394241 -4.92378585 16.0806541 -5.9375 18.1875 C-6.61743573 19.61871375 -7.29648349 21.05034971 -7.97460938 22.48242188 C-9.63947314 25.99326462 -11.31648152 29.49806675 -13 33 C-14 30 -14 30 -13.1875 28.16796875 C-12.795625 27.51441406 -12.40375 26.86085938 -12 26.1875 C-9.92050789 22.33265919 -10.02093567 20.30788304 -11 16 C-10.0625 13.625 -10.0625 13.625 -9 12 C-8.01 12.33 -7.02 12.66 -6 13 C-4.02 8.71 -2.04 4.42 0 0 Z " fill="#1C4C76" transform="translate(700,493)"/>
<path d="M0 0 C0.33 0.66 0.66 1.32 1 2 C0.00390625 4.6015625 0.00390625 4.6015625 -1.4375 7.625 C-1.91058594 8.62789062 -2.38367188 9.63078125 -2.87109375 10.6640625 C-3.24363281 11.43492187 -3.61617187 12.20578125 -4 13 C-3.34 13 -2.68 13 -2 13 C-2 14.32 -2 15.64 -2 17 C-3.65 17 -5.3 17 -7 17 C-7.28875 17.94875 -7.5775 18.8975 -7.875 19.875 C-9 23 -9 23 -11 25 C-10.40990351 21.50112943 -9.49917813 18.58778923 -7.96875 15.390625 C-7.37126953 14.13572266 -7.37126953 14.13572266 -6.76171875 12.85546875 C-6.34535156 11.99566406 -5.92898438 11.13585937 -5.5 10.25 C-5.08363281 9.37472656 -4.66726563 8.49945313 -4.23828125 7.59765625 C-1.14885603 1.14885603 -1.14885603 1.14885603 0 0 Z " fill="#1A4B77" transform="translate(961,190)"/>
<path d="M0 0 C1.44342388 4.33027163 -0.5191184 7.17747918 -2.3125 11.125 C-2.63412109 11.86621094 -2.95574219 12.60742188 -3.28710938 13.37109375 C-5.73353909 18.86676955 -5.73353909 18.86676955 -8 20 C-8.33 16.7 -8.66 13.4 -9 10 C-7.68 10.99 -6.36 11.98 -5 13 C-4.80664062 12.39671875 -4.61328125 11.7934375 -4.4140625 11.171875 C-4.02347656 9.97304688 -4.02347656 9.97304688 -3.625 8.75 C-3.36976563 7.96109375 -3.11453125 7.1721875 -2.8515625 6.359375 C-2.04826333 4.13372042 -1.10288338 2.09068328 0 0 Z " fill="#1B4C78" transform="translate(569,455)"/>
<path d="M0 0 C0.33 0.66 0.66 1.32 1 2 C0.0625 4.125 0.0625 4.125 -1 6 C-0.34 6 0.32 6 1 6 C1.33 5.01 1.66 4.02 2 3 C1.625 5.9375 1.625 5.9375 1 9 C0.01 9.495 0.01 9.495 -1 10 C-1 9.34 -1 8.68 -1 8 C-1.66 8 -2.32 8 -3 8 C-3.19335938 8.63808594 -3.38671875 9.27617187 -3.5859375 9.93359375 C-3.97652344 11.17302734 -3.97652344 11.17302734 -4.375 12.4375 C-4.75785156 13.67306641 -4.75785156 13.67306641 -5.1484375 14.93359375 C-6 17 -6 17 -8 18 C-6.10463724 11.48180123 -3.4821006 5.82185199 0 0 Z " fill="#1D4D77" transform="translate(942,231)"/>
<path d="M0 0 C1.36624097 3.07206785 0.89059724 4.34762448 -0.14453125 7.63671875 C-0.68890884 8.99170238 -1.245325 10.34189971 -1.8125 11.6875 C-2.08642578 12.37650391 -2.36035156 13.06550781 -2.64257812 13.77539062 C-4.72933094 18.86466547 -4.72933094 18.86466547 -7 20 C-6.979375 19.278125 -6.95875 18.55625 -6.9375 17.8125 C-6.99820559 15.08074862 -7.39258535 12.65743909 -8 10 C-7.67 10.99 -7.34 11.98 -7 13 C-6.01 13 -5.02 13 -4 13 C-3.79503906 12.31292969 -3.59007812 11.62585938 -3.37890625 10.91796875 C-3.10949219 10.01691406 -2.84007812 9.11585938 -2.5625 8.1875 C-2.29566406 7.29417969 -2.02882813 6.40085937 -1.75390625 5.48046875 C-1.19612127 3.64526945 -0.60655425 1.81966274 0 0 Z " fill="#1A4B74" transform="translate(440,398)"/>
<path d="M0 0 C0.99 0 1.98 0 3 0 C2.39254603 4.85963179 0.27241033 8.7405518 -2 13 C-3.1171875 11.296875 -3.1171875 11.296875 -4 9 C-3.3203125 6.640625 -3.3203125 6.640625 -2.125 4.25 C-1.73570312 3.45078125 -1.34640625 2.6515625 -0.9453125 1.828125 C-0.63335938 1.22484375 -0.32140625 0.6215625 0 0 Z " fill="#EBEEEE" transform="translate(568,460)"/>
<path d="M0 0 C0 4.08735515 -1.69711865 5.39489363 -4.33984375 8.34375 C-6.38334386 10.38244188 -8.35924173 11.82632966 -11 13 C-11.66 12.67 -12.32 12.34 -13 12 C-8.71 8.04 -4.42 4.08 0 0 Z " fill="#144877" transform="translate(497,510)"/>
<path d="M0 0 C1.23556641 0.01740234 1.23556641 0.01740234 2.49609375 0.03515625 C3.32238281 0.04417969 4.14867187 0.05320313 5 0.0625 C5.63808594 0.07410156 6.27617187 0.08570313 6.93359375 0.09765625 C6.60359375 1.08765625 6.27359375 2.07765625 5.93359375 3.09765625 C6.92359375 3.42765625 7.91359375 3.75765625 8.93359375 4.09765625 C7.30778409 3.9836696 5.68292218 3.85609966 4.05859375 3.72265625 C3.15367187 3.65304688 2.24875 3.5834375 1.31640625 3.51171875 C-1.06640625 3.09765625 -1.06640625 3.09765625 -3.06640625 1.09765625 C-2.06640625 0.09765625 -2.06640625 0.09765625 0 0 Z " fill="#1E527D" transform="translate(401.06640625,184.90234375)"/>
<path d="M0 0 C-0.99 0.66 -1.98 1.32 -3 2 C-3.66 1.67 -4.32 1.34 -5 1 C-5.33 1.66 -5.66 2.32 -6 3 C-8.50390625 3.4140625 -8.50390625 3.4140625 -11.5625 3.625 C-12.57441406 3.69976563 -13.58632813 3.77453125 -14.62890625 3.8515625 C-15.41136719 3.90054688 -16.19382812 3.94953125 -17 4 C-14.59327602 1.59327602 -12.88621451 1.20867825 -9.625 0.3125 C-8.66851562 0.04050781 -7.71203125 -0.23148438 -6.7265625 -0.51171875 C-4.02935339 -0.9947433 -2.55027856 -0.9004538 0 0 Z " fill="#1B4A74" transform="translate(428,555)"/>
<path d="M0 0 C0 0.99 0 1.98 0 3 C-6.93 4.485 -6.93 4.485 -14 6 C-12.60399265 3.2079853 -10.99583616 2.99837067 -8.125 1.875 C-7.24070312 1.52179687 -6.35640625 1.16859375 -5.4453125 0.8046875 C-3 0 -3 0 0 0 Z " fill="#184A77" transform="translate(443,548)"/>
<path d="M0 0 C0.99 0.33 1.98 0.66 3 1 C2.38461538 6.53846154 2.38461538 6.53846154 0.4375 8.875 C-0.036875 9.24625 -0.51125 9.6175 -1 10 C-2.31223496 6.06329512 -1.24296256 3.87511856 0 0 Z " fill="#1F5786" transform="translate(546,425)"/>
<path d="M0 0 C2 0 2 0 3.5625 1.125 C5.49026016 3.63946978 5.65505107 5.89545967 6 9 C5.01 9.495 5.01 9.495 4 10 C3.32845067 8.71086513 2.66291141 7.41859796 2 6.125 C1.62875 5.40570312 1.2575 4.68640625 0.875 3.9453125 C0 2 0 2 0 0 Z " fill="#E6EDF0" transform="translate(591,685)"/>
<path d="M0 0 C1 3 1 3 -0.21484375 5.91796875 C-0.78332031 6.99691406 -1.35179687 8.07585937 -1.9375 9.1875 C-2.50339844 10.27417969 -3.06929687 11.36085937 -3.65234375 12.48046875 C-4.09707031 13.31191406 -4.54179688 14.14335937 -5 15 C-6 12 -6 12 -4.625 9.125 C-4.08875 8.09375 -3.5525 7.0625 -3 6 C-2.814375 5.071875 -2.62875 4.14375 -2.4375 3.1875 C-2.293125 2.465625 -2.14875 1.74375 -2 1 C-1.34 0.67 -0.68 0.34 0 0 Z " fill="#1C4B74" transform="translate(832,205)"/>
<path d="M0 0 C-1.93617021 6.70212766 -1.93617021 6.70212766 -5 9 C-5.66 9 -6.32 9 -7 9 C-4.4 0 -4.4 0 0 0 Z " fill="#E9EDEE" transform="translate(827,226)"/>
<path d="M0 0 C0.99 0.495 0.99 0.495 2 1 C2 1.99 2 2.98 2 4 C2.66 4 3.32 4 4 4 C4 5.65 4 7.3 4 9 C3.01 9.495 3.01 9.495 2 10 C0.68373308 6.38026598 0 3.90432869 0 0 Z " fill="#EBEEEE" transform="translate(633,772)"/>
<path d="M0 0 C0.33 0.99 0.66 1.98 1 3 C1.66 3 2.32 3 3 3 C2.67 6.96 2.34 10.92 2 15 C1.67 15 1.34 15 1 15 C0.15318867 9.91913204 -0.09038099 5.15171623 0 0 Z " fill="#113F68" transform="translate(551,346)"/>
<path d="M0 0 C1 3 1 3 0.00390625 5.48046875 C-0.47175781 6.37378906 -0.94742188 7.26710938 -1.4375 8.1875 C-1.91058594 9.08855469 -2.38367188 9.98960937 -2.87109375 10.91796875 C-3.24363281 11.60503906 -3.61617187 12.29210937 -4 13 C-6 10 -6 10 -6 8 C-5.01 8 -4.02 8 -3 8 C-2.690625 7.05125 -2.38125 6.1025 -2.0625 5.125 C-1 2 -1 2 0 0 Z " fill="#164772" transform="translate(777,325)"/>
<path d="M0 0 C0.99 0 1.98 0 3 0 C3.33 2.31 3.66 4.62 4 7 C2.68 6.67 1.36 6.34 0 6 C-1.125 2.25 -1.125 2.25 0 0 Z " fill="#EBEEEF" transform="translate(779,323)"/>
<path d="M0 0 C0.99 0 1.98 0 3 0 C2.625 1.9375 2.625 1.9375 2 4 C1.01 4.495 1.01 4.495 0 5 C-0.33 5.99 -0.66 6.98 -1 8 C-1.66 8 -2.32 8 -3 8 C-1.125 2.25 -1.125 2.25 0 0 Z " fill="#EAEFF1" transform="translate(690,518)"/>
<path d="M0 0 C3 1.8125 3 1.8125 6 4 C6 4.99 6 5.98 6 7 C5.443125 6.525625 4.88625 6.05125 4.3125 5.5625 C1.81653926 3.87604004 -0.0446237 3.41046893 -3 3 C-2.01 2.01 -1.02 1.02 0 0 Z " fill="#1E5382" transform="translate(134,268)"/>
<path d="M0 0 C0.66 0 1.32 0 2 0 C1.375 6.625 1.375 6.625 -2 10 C-1.34 6.7 -0.68 3.4 0 0 Z " fill="#184E7B" transform="translate(811,246)"/>
<path d="M0 0 C0.66 0 1.32 0 2 0 C1.125 5.75 1.125 5.75 0 8 C-0.66 8 -1.32 8 -2 8 C-1.125 1.125 -1.125 1.125 0 0 Z " fill="#EAEFF0" transform="translate(744,652)"/>
<path d="M0 0 C1.32 0 2.64 0 4 0 C3.40138258 2.35171131 2.73075648 4.6859378 2 7 C1.01 7.495 1.01 7.495 0 8 C0 5.36 0 2.72 0 0 Z " fill="#1C4F7B" transform="translate(817,231)"/>
<path d="M0 0 C0.66 0.99 1.32 1.98 2 3 C1 5 0 7 -1 9 C-1.66 9 -2.32 9 -3 9 C-2.01 6.03 -1.02 3.06 0 0 Z " fill="#EAEFF1" transform="translate(667,568)"/>
<path d="M0 0 C0.66 0.99 1.32 1.98 2 3 C1.125 6.1875 1.125 6.1875 0 9 C-0.99 8.34 -1.98 7.68 -3 7 C-2.01 4.69 -1.02 2.38 0 0 Z " fill="#E7EDEF" transform="translate(793,292)"/>
<path d="M0 0 C0.33 0.66 0.66 1.32 1 2 C-0.98 4.97 -0.98 4.97 -3 8 C-3.66 7.01 -4.32 6.02 -5 5 C-4.01 4.67 -3.02 4.34 -2 4 C-2 3.01 -2 2.02 -2 1 C-1.34 0.67 -0.68 0.34 0 0 Z " fill="#174976" transform="translate(432,418)"/>
</svg>
